# xmcd
#
# Track frame offsets: 
#        150
#        17924
#        32964
#        56342
#        78104
#        92838
#        110410
#        125365
#        142147
#        164804
#        165104
#        165404
#        165704
#        166004
#        166304
#        166604
#        166904
#        167204
#        167504
#        167804
#        168104
#        168404
#        168704
#        169004
#
# Disc length: 2741 seconds
#
# Revision: 2
# Processed by: cddbd v1.5.2PL0 Copyright (c) Steve Scherf et al.
# Submitted via: ExactAudioCopy v1.3
#
DISCID=220ab318
DTITLE=Jennifer Johns - heavyelectromagneticsoularpoeticjunglehop
DYEAR=2004
DGENRE=R&B
TTITLE0=Heavy (808-junglistic afro freak)
TTITLE1=Do You Believe In Love
TTITLE2=Beautiful
TTITLE3=Fallen
TTITLE4=Never Give Up
TTITLE5=The Truth
TTITLE6=O
TTITLE7=Cherish The Day
TTITLE8=FIRE
TTITLE9=Blank Track 10
TTITLE10=Blank Track 11
TTITLE11=Blank Track 12
TTITLE12=Blank Track 13
TTITLE13=Blank Track 14
TTITLE14=Blank Track 15
TTITLE15=Blank Track 16
TTITLE16=Blank Track 17
TTITLE17=Blank Track 18
TTITLE18=Blank Track 19
TTITLE19=Blank Track 20
TTITLE20=Blank Track 21
TTITLE21=Blank Track 22
TTITLE22=Blank Track 23
TTITLE23=Afraid Of Me (Hidden Bonus Track)
EXTD=
EXTT0=
EXTT1=
EXTT2=
EXTT3=
EXTT4=
EXTT5=
EXTT6=
EXTT7=
EXTT8=
EXTT9=
EXTT10=
EXTT11=
EXTT12=
EXTT13=
EXTT14=
EXTT15=
EXTT16=
EXTT17=
EXTT18=
EXTT19=
EXTT20=
EXTT21=
EXTT22=
EXTT23=
PLAYORDER=
